<svg width="694" height="521" viewBox="0 0 694 521" fill="none" xmlns="http://www.w3.org/2000/svg">
<path d="M281.121 252C222.305 448 49.1796 515 0 521V0L556.262 0C468.8 34.4403 323.598 110.45 281.121 252Z" fill="url(#paint0_linear)"/>
<path d="M134.859 179.969C132.75 182.312 129.664 184.201 125.602 185.633C121.539 187.065 117.086 187.781 112.242 187.781C104.794 187.781 98.8438 185.503 94.3906 180.945C89.9375 176.388 87.5547 170.047 87.2422 161.922L87.2031 157C87.2031 151.401 88.1927 146.518 90.1719 142.352C92.151 138.159 94.9766 134.943 98.6484 132.703C102.346 130.438 106.617 129.305 111.461 129.305C118.544 129.305 124.039 130.932 127.945 134.188C131.878 137.417 134.169 142.247 134.82 148.68H121.617C121.148 145.503 120.133 143.237 118.57 141.883C117.008 140.529 114.794 139.852 111.93 139.852C108.492 139.852 105.836 141.31 103.961 144.227C102.086 147.143 101.135 151.31 101.109 156.727V160.164C101.109 165.841 102.073 170.112 104 172.977C105.953 175.815 109.013 177.234 113.18 177.234C116.747 177.234 119.404 176.44 121.148 174.852V166.023H111.617V156.609H134.859V179.969ZM144.562 165.477C144.562 161.258 145.383 157.508 147.023 154.227C148.664 150.919 151.021 148.38 154.094 146.609C157.167 144.839 160.773 143.953 164.914 143.953C171.242 143.953 176.229 145.919 179.875 149.852C183.521 153.758 185.344 159.083 185.344 165.828V166.297C185.344 172.885 183.508 178.12 179.836 182C176.19 185.854 171.242 187.781 164.992 187.781C158.977 187.781 154.146 185.984 150.5 182.391C146.854 178.771 144.888 173.875 144.602 167.703L144.562 165.477ZM157.727 166.297C157.727 170.203 158.339 173.068 159.562 174.891C160.786 176.714 162.596 177.625 164.992 177.625C169.68 177.625 172.076 174.018 172.18 166.805V165.477C172.18 157.898 169.758 154.109 164.914 154.109C160.513 154.109 158.13 157.378 157.766 163.914L157.727 166.297ZM210.477 134.227V144.734H217.43V153.875H210.477V173.211C210.477 174.799 210.763 175.906 211.336 176.531C211.909 177.156 213.042 177.469 214.734 177.469C216.036 177.469 217.13 177.391 218.016 177.234V186.648C215.646 187.404 213.172 187.781 210.594 187.781C206.062 187.781 202.716 186.714 200.555 184.578C198.393 182.443 197.312 179.201 197.312 174.852V153.875H191.922V144.734H197.312V134.227H210.477ZM111.5 281C111.031 280.141 110.615 278.878 110.25 277.211C107.828 280.258 104.443 281.781 100.094 281.781C96.1094 281.781 92.724 280.583 89.9375 278.188C87.151 275.766 85.7578 272.732 85.7578 269.086C85.7578 264.503 87.4505 261.039 90.8359 258.695C94.2214 256.352 99.1432 255.18 105.602 255.18H109.664V252.953C109.664 249.073 107.984 247.133 104.625 247.133C101.5 247.133 99.9375 248.669 99.9375 251.742H86.7734C86.7734 247.654 88.5052 244.333 91.9688 241.781C95.4583 239.229 99.8984 237.953 105.289 237.953C110.68 237.953 114.938 239.268 118.062 241.898C121.188 244.529 122.789 248.135 122.867 252.719V271.43C122.919 275.31 123.518 278.279 124.664 280.336V281H111.5ZM103.258 272.406C104.898 272.406 106.253 272.055 107.32 271.352C108.414 270.648 109.195 269.854 109.664 268.969V262.211H105.836C101.253 262.211 98.9609 264.268 98.9609 268.383C98.9609 269.581 99.3646 270.557 100.172 271.312C100.979 272.042 102.008 272.406 103.258 272.406ZM146.281 238.734L146.711 243.695C149.628 239.867 153.651 237.953 158.781 237.953C163.182 237.953 166.464 239.268 168.625 241.898C170.812 244.529 171.945 248.487 172.023 253.773V281H158.82V254.32C158.82 252.185 158.391 250.622 157.531 249.633C156.672 248.617 155.109 248.109 152.844 248.109C150.266 248.109 148.352 249.125 147.102 251.156V281H133.938V238.734H146.281ZM221.156 281H207.953V238.734H221.156V281ZM207.172 227.836C207.172 225.961 207.849 224.424 209.203 223.227C210.557 222.029 212.315 221.43 214.477 221.43C216.638 221.43 218.396 222.029 219.75 223.227C221.104 224.424 221.781 225.961 221.781 227.836C221.781 229.711 221.104 231.247 219.75 232.445C218.396 233.643 216.638 234.242 214.477 234.242C212.315 234.242 210.557 233.643 209.203 232.445C207.849 231.247 207.172 229.711 207.172 227.836ZM231.641 259.555C231.641 252.862 233.086 247.589 235.977 243.734C238.867 239.88 242.904 237.953 248.086 237.953C251.862 237.953 255.039 239.438 257.617 242.406V221H270.82V281H258.984L258.32 276.469C255.612 280.01 252.174 281.781 248.008 281.781C242.982 281.781 238.997 279.854 236.055 276C233.112 272.146 231.641 266.664 231.641 259.555ZM244.805 260.375C244.805 267.875 246.992 271.625 251.367 271.625C254.284 271.625 256.367 270.401 257.617 267.953V251.859C256.419 249.359 254.362 248.109 251.445 248.109C247.383 248.109 245.182 251.391 244.844 257.953L244.805 260.375Z" fill="white"/>
<path d="M302.75 281.781C296.266 281.781 291.018 279.854 287.008 276C282.997 272.12 280.992 267.081 280.992 260.883V259.789C280.992 255.466 281.786 251.651 283.375 248.344C284.99 245.036 287.333 242.484 290.406 240.688C293.479 238.865 297.125 237.953 301.344 237.953C307.281 237.953 311.969 239.802 315.406 243.5C318.844 247.172 320.562 252.302 320.562 258.891V264.008H294.391C294.859 266.378 295.888 268.24 297.477 269.594C299.065 270.948 301.122 271.625 303.648 271.625C307.815 271.625 311.07 270.167 313.414 267.25L319.43 274.359C317.789 276.625 315.458 278.435 312.438 279.789C309.443 281.117 306.214 281.781 302.75 281.781ZM301.266 248.109C297.411 248.109 295.12 250.661 294.391 255.766H307.672V254.75C307.724 252.641 307.19 251.013 306.07 249.867C304.951 248.695 303.349 248.109 301.266 248.109ZM353.703 281C353.234 280.141 352.818 278.878 352.453 277.211C350.031 280.258 346.646 281.781 342.297 281.781C338.312 281.781 334.927 280.583 332.141 278.188C329.354 275.766 327.961 272.732 327.961 269.086C327.961 264.503 329.654 261.039 333.039 258.695C336.424 256.352 341.346 255.18 347.805 255.18H351.867V252.953C351.867 249.073 350.188 247.133 346.828 247.133C343.703 247.133 342.141 248.669 342.141 251.742H328.977C328.977 247.654 330.708 244.333 334.172 241.781C337.661 239.229 342.102 237.953 347.492 237.953C352.883 237.953 357.141 239.268 360.266 241.898C363.391 244.529 364.992 248.135 365.07 252.719V271.43C365.122 275.31 365.721 278.279 366.867 280.336V281H353.703ZM345.461 272.406C347.102 272.406 348.456 272.055 349.523 271.352C350.617 270.648 351.398 269.854 351.867 268.969V262.211H348.039C343.456 262.211 341.164 264.268 341.164 268.383C341.164 269.581 341.568 270.557 342.375 271.312C343.182 272.042 344.211 272.406 345.461 272.406ZM386.141 262.992C386.141 259.19 386.57 256.195 387.43 254.008C388.289 251.794 389.682 249.88 391.609 248.266C393.536 246.651 394.995 245.18 395.984 243.852C397 242.497 397.508 241.013 397.508 239.398C397.508 235.466 395.815 233.5 392.43 233.5C390.867 233.5 389.604 234.073 388.641 235.219C387.677 236.365 387.169 237.914 387.117 239.867H373.914C373.966 234.659 375.607 230.609 378.836 227.719C382.065 224.802 386.596 223.344 392.43 223.344C398.237 223.344 402.729 224.685 405.906 227.367C409.109 230.049 410.711 233.865 410.711 238.812C410.711 240.974 410.281 242.94 409.422 244.711C408.562 246.482 407.182 248.292 405.281 250.141L400.789 254.32C399.513 255.544 398.628 256.807 398.133 258.109C397.638 259.385 397.365 261.013 397.312 262.992H386.141ZM384.539 274.867C384.539 272.94 385.229 271.365 386.609 270.141C388.016 268.891 389.76 268.266 391.844 268.266C393.927 268.266 395.659 268.891 397.039 270.141C398.445 271.365 399.148 272.94 399.148 274.867C399.148 276.794 398.445 278.383 397.039 279.633C395.659 280.857 393.927 281.469 391.844 281.469C389.76 281.469 388.016 280.857 386.609 279.633C385.229 278.383 384.539 276.794 384.539 274.867Z" fill="#28E2F8"/>
<path d="M134.359 372.789L140.883 337.125H154.477L142.406 394H128.188L120.57 361.578L113.109 394H98.9297L86.8203 337.125H100.453L106.977 372.789L114.789 337.125H126.43L134.359 372.789ZM182.422 394.781C175.938 394.781 170.69 392.854 166.68 389C162.669 385.12 160.664 380.081 160.664 373.883V372.789C160.664 368.466 161.458 364.651 163.047 361.344C164.661 358.036 167.005 355.484 170.078 353.688C173.151 351.865 176.797 350.953 181.016 350.953C186.953 350.953 191.641 352.802 195.078 356.5C198.516 360.172 200.234 365.302 200.234 371.891V377.008H174.062C174.531 379.378 175.56 381.24 177.148 382.594C178.737 383.948 180.794 384.625 183.32 384.625C187.487 384.625 190.742 383.167 193.086 380.25L199.102 387.359C197.461 389.625 195.13 391.435 192.109 392.789C189.115 394.117 185.885 394.781 182.422 394.781ZM180.938 361.109C177.083 361.109 174.792 363.661 174.062 368.766H187.344V367.75C187.396 365.641 186.862 364.013 185.742 362.867C184.622 361.695 183.021 361.109 180.938 361.109Z" fill="white"/>
<path d="M245.93 351.734L246.359 356.695C249.354 352.867 253.378 350.953 258.43 350.953C263.768 350.953 267.375 353.076 269.25 357.32C272.115 353.076 276.255 350.953 281.672 350.953C290.24 350.953 294.641 356.135 294.875 366.5V394H281.672V367.32C281.672 365.159 281.307 363.583 280.578 362.594C279.849 361.604 278.521 361.109 276.594 361.109C273.99 361.109 272.049 362.268 270.773 364.586L270.812 365.133V394H257.609V367.398C257.609 365.185 257.258 363.583 256.555 362.594C255.852 361.604 254.51 361.109 252.531 361.109C250.005 361.109 248.078 362.268 246.75 364.586V394H233.586V351.734H245.93ZM330.203 394C329.734 393.141 329.318 391.878 328.953 390.211C326.531 393.258 323.146 394.781 318.797 394.781C314.812 394.781 311.427 393.583 308.641 391.188C305.854 388.766 304.461 385.732 304.461 382.086C304.461 377.503 306.154 374.039 309.539 371.695C312.924 369.352 317.846 368.18 324.305 368.18H328.367V365.953C328.367 362.073 326.688 360.133 323.328 360.133C320.203 360.133 318.641 361.669 318.641 364.742H305.477C305.477 360.654 307.208 357.333 310.672 354.781C314.161 352.229 318.602 350.953 323.992 350.953C329.383 350.953 333.641 352.268 336.766 354.898C339.891 357.529 341.492 361.135 341.57 365.719V384.43C341.622 388.31 342.221 391.279 343.367 393.336V394H330.203ZM321.961 385.406C323.602 385.406 324.956 385.055 326.023 384.352C327.117 383.648 327.898 382.854 328.367 381.969V375.211H324.539C319.956 375.211 317.664 377.268 317.664 381.383C317.664 382.581 318.068 383.557 318.875 384.312C319.682 385.042 320.711 385.406 321.961 385.406ZM369.867 378.258L366.156 381.969V394H352.992V333.961H366.156V365.836L367.484 364.078L377.406 351.734H393.188L378.383 369.117L394.164 394H379.086L369.867 378.258ZM420.312 394.781C413.828 394.781 408.581 392.854 404.57 389C400.56 385.12 398.555 380.081 398.555 373.883V372.789C398.555 368.466 399.349 364.651 400.938 361.344C402.552 358.036 404.896 355.484 407.969 353.688C411.042 351.865 414.688 350.953 418.906 350.953C424.844 350.953 429.531 352.802 432.969 356.5C436.406 360.172 438.125 365.302 438.125 371.891V377.008H411.953C412.422 379.378 413.451 381.24 415.039 382.594C416.628 383.948 418.685 384.625 421.211 384.625C425.378 384.625 428.633 383.167 430.977 380.25L436.992 387.359C435.352 389.625 433.021 391.435 430 392.789C427.005 394.117 423.776 394.781 420.312 394.781ZM418.828 361.109C414.974 361.109 412.682 363.661 411.953 368.766H425.234V367.75C425.286 365.641 424.753 364.013 423.633 362.867C422.513 361.695 420.911 361.109 418.828 361.109ZM486.711 341.227V351.734H493.664V360.875H486.711V380.211C486.711 381.799 486.997 382.906 487.57 383.531C488.143 384.156 489.276 384.469 490.969 384.469C492.271 384.469 493.365 384.391 494.25 384.234V393.648C491.88 394.404 489.406 394.781 486.828 394.781C482.297 394.781 478.951 393.714 476.789 391.578C474.628 389.443 473.547 386.201 473.547 381.852V360.875H468.156V351.734H473.547V341.227H486.711ZM515.75 356.266C518.562 352.724 522.156 350.953 526.531 350.953C531.193 350.953 534.708 352.333 537.078 355.094C539.448 357.854 540.659 361.93 540.711 367.32V394H527.508V367.633C527.508 365.393 527.052 363.753 526.141 362.711C525.229 361.643 523.68 361.109 521.492 361.109C518.784 361.109 516.87 361.969 515.75 363.688V394H502.586V334H515.75V356.266ZM572.484 394.781C566 394.781 560.753 392.854 556.742 389C552.732 385.12 550.727 380.081 550.727 373.883V372.789C550.727 368.466 551.521 364.651 553.109 361.344C554.724 358.036 557.068 355.484 560.141 353.688C563.214 351.865 566.859 350.953 571.078 350.953C577.016 350.953 581.703 352.802 585.141 356.5C588.578 360.172 590.297 365.302 590.297 371.891V377.008H564.125C564.594 379.378 565.622 381.24 567.211 382.594C568.799 383.948 570.857 384.625 573.383 384.625C577.549 384.625 580.805 383.167 583.148 380.25L589.164 387.359C587.523 389.625 585.193 391.435 582.172 392.789C579.177 394.117 575.948 394.781 572.484 394.781ZM571 361.109C567.146 361.109 564.854 363.661 564.125 368.766H577.406V367.75C577.458 365.641 576.924 364.013 575.805 362.867C574.685 361.695 573.083 361.109 571 361.109ZM612.07 351.734L612.5 356.695C615.495 352.867 619.518 350.953 624.57 350.953C629.909 350.953 633.516 353.076 635.391 357.32C638.255 353.076 642.396 350.953 647.812 350.953C656.38 350.953 660.781 356.135 661.016 366.5V394H647.812V367.32C647.812 365.159 647.448 363.583 646.719 362.594C645.99 361.604 644.661 361.109 642.734 361.109C640.13 361.109 638.19 362.268 636.914 364.586L636.953 365.133V394H623.75V367.398C623.75 365.185 623.398 363.583 622.695 362.594C621.992 361.604 620.651 361.109 618.672 361.109C616.146 361.109 614.219 362.268 612.891 364.586V394H599.727V351.734H612.07ZM680.68 381.227C682.763 381.227 684.495 381.852 685.875 383.102C687.255 384.326 687.945 385.901 687.945 387.828C687.945 389.755 687.255 391.344 685.875 392.594C684.495 393.818 682.763 394.43 680.68 394.43C678.57 394.43 676.826 393.805 675.445 392.555C674.091 391.305 673.414 389.729 673.414 387.828C673.414 385.927 674.091 384.352 675.445 383.102C676.826 381.852 678.57 381.227 680.68 381.227Z" fill="#28E2F8"/>
<defs>
<linearGradient id="paint0_linear" x1="720" y1="0" x2="720" y2="521" gradientUnits="userSpaceOnUse">
<stop stop-color="#1AE6F3"/>
<stop offset="1" stop-color="#3CDCFF"/>
</linearGradient>
</defs>
</svg>
